<svg xmlns="http://www.w3.org/2000/svg" version="1.1" xmlns:xlink="http://www.w3.org/1999/xlink" width="512" height="512" x="0" y="0" viewBox="0 0 64 64" style="enable-background:new 0 0 512 512" xml:space="preserve" class=""><g><path fill="#f57c00" d="M50 16H26.428a1 1 0 0 1-.664-.253l-5.61-4.99A2.999 2.999 0 0 0 18.162 10H5a3 3 0 0 0-3 3v33a3 3 0 0 0 3 3h48V19a3 3 0 0 0-3-3z" opacity="1" data-original="#f57c00" class=""></path><path fill="#e0e0e0" d="M46 20H9a3 3 0 0 0-3 3v26h43V23a3 3 0 0 0-3-3z" opacity="1" data-original="#e0e0e0" class=""></path><path fill="#ffa000" d="M57.41 28.65 53 48.42l-.13.58H5a2.974 2.974 0 0 1-2.81-1.97l4.39-19.68A3.006 3.006 0 0 1 9.51 25h44.97a3.018 3.018 0 0 1 2.93 3.65z" opacity="1" data-original="#ffa000"></path><circle cx="51" cy="43" r="11" fill="#689f38" opacity="1" data-original="#689f38"></circle><path fill="#e0e0e0" d="M56 42h-4v-4a1 1 0 0 0-2 0v4h-4a1 1 0 0 0 0 2h4v4a1 1 0 0 0 2 0v-4h4a1 1 0 0 0 0-2z" opacity="1" data-original="#e0e0e0" class=""></path></g></svg>