<svg xmlns="http://www.w3.org/2000/svg" version="1.1" xmlns:xlink="http://www.w3.org/1999/xlink" width="512" height="512" x="0" y="0" viewBox="0 0 512 512" style="enable-background:new 0 0 512 512" xml:space="preserve" class=""><g><path fill="#e3a554" d="m226.617 137.805-1.058-15.563c-.817-12.027-9.735-21.949-21.606-24.043l-39.691-7c-11.875-2.094-23.649 4.18-28.532 15.203l-6.316 14.262a14.876 14.876 0 0 1-16.184 8.625l-24.03-4.234c-11.622-2.051-22.704 5.707-24.755 17.328l-41.37 234.64 419.128 73.907 41.371-234.64c2.051-11.622-5.707-22.704-17.328-24.75L238.88 151.444a14.878 14.878 0 0 1-12.262-13.64zm0 0" opacity="1" data-original="#e3a554" class=""></path><path fill="#f8eed1" d="m409.8 310.902-191.105 16.72c-13.28 1.163-24.988-8.665-26.148-21.946L169.562 42.965c-1.164-13.281 8.66-24.988 21.942-26.152L382.609.093c13.282-1.163 24.989 8.665 26.153 21.946l22.98 262.711c1.164 13.281-8.66 24.992-21.941 26.152zm0 0" opacity="1" data-original="#f8eed1"></path><path fill="#edd8a1" d="M430.512 294.707c-98.223-8.664-194.637-191.355-215.059-279.988l-23.95 2.094c-13.28 1.164-23.105 12.87-21.94 26.152l22.984 262.71c1.16 13.282 12.867 23.11 26.148 21.946l191.106-16.719c9.797-.859 17.695-7.46 20.71-16.195zm0 0" opacity="1" data-original="#edd8a1"></path><g fill="#495059"><path d="M225.531 62.578a7.499 7.499 0 0 1-7.46-6.848c-.364-4.125 2.69-7.761 6.816-8.125l45.578-3.984c4.125-.355 7.762 2.691 8.125 6.816a7.499 7.499 0 0 1-6.82 8.126l-45.575 3.988c-.222.02-.445.027-.664.027zM229.895 112.441a7.496 7.496 0 0 1-7.461-6.847c-.364-4.125 2.691-7.762 6.816-8.125l130.191-11.39a7.498 7.498 0 0 1 8.125 6.82 7.503 7.503 0 0 1-6.816 8.124l-130.191 11.391c-.223.02-.446.027-.664.027zM232.89 146.691c-3.843 0-7.12-2.941-7.46-6.843a7.496 7.496 0 0 1 6.816-8.125l130.191-11.391c4.122-.352 7.762 2.691 8.125 6.816a7.501 7.501 0 0 1-6.82 8.125l-130.187 11.391c-.223.02-.442.027-.664.027zM235.89 180.945a7.5 7.5 0 0 1-7.464-6.847 7.503 7.503 0 0 1 6.816-8.125l130.192-11.391c4.12-.355 7.765 2.691 8.125 6.82.363 4.125-2.692 7.762-6.817 8.125l-130.191 11.391c-.223.02-.442.027-.66.027zm0 0" fill="#495059" opacity="1" data-original="#495059"></path></g><path fill="#f2d073" d="M425.648 511.668 17.855 439.766C6.105 437.69-1.738 426.488.332 414.738L41.27 182.566c2.074-11.75 13.277-19.593 25.027-17.523l407.793 71.906c11.75 2.07 19.594 13.278 17.523 25.024l-40.937 232.172c-2.074 11.75-13.278 19.597-25.028 17.523zm0 0" opacity="1" data-original="#f2d073" class=""></path><path fill="#e3a554" d="M66.297 165.043c-11.75-2.074-22.953 5.773-25.027 17.523L.332 414.738c-2.07 11.75 5.773 22.953 17.523 25.024l150.555 26.547C93.281 412.074 79.2 281.395 82.535 167.906zm0 0" opacity="1" data-original="#e3a554" class=""></path><path fill="#e3a554" d="m7.672 373.207 450.34 79.387-2.606 14.77L5.07 387.98zm0 0" opacity="1" data-original="#e3a554" class=""></path><path fill="#f19a87" d="M181.848 329.258c2.89-16.399-11.457-32.633-32.051-36.262-20.59-3.629-39.621 6.723-42.512 23.117-2.89 16.399 11.457 32.633 32.047 36.262 20.59 3.629 39.625-6.719 42.516-23.117zM309.336 351.777c-2.89 16.399 11.457 32.633 32.047 36.262 20.59 3.629 39.625-6.719 42.515-23.117 2.891-16.399-11.457-32.633-32.046-36.262-20.59-3.629-39.625 6.719-42.516 23.117zm0 0" opacity="1" data-original="#f19a87"></path><path fill="#495059" d="M156.973 296.238a7.501 7.501 0 0 1-7.395-8.805l2.82-16c.72-4.078 4.614-6.808 8.692-6.081a7.5 7.5 0 0 1 6.082 8.687l-2.82 16.004a7.506 7.506 0 0 1-7.38 6.195zM279.684 322.984c3.277-18.578-7.528-36.007-24.13-38.933-16.597-2.926-32.71 9.762-35.984 28.336-3.277 18.578 7.528 36.008 24.13 38.933 16.597 2.926 32.71-9.761 35.984-28.336zM346.59 329.676c-.434 0-.871-.04-1.313-.117a7.497 7.497 0 0 1-6.082-8.688l2.82-16c.72-4.082 4.61-6.809 8.688-6.086a7.5 7.5 0 0 1 6.086 8.688l-2.82 16.004a7.51 7.51 0 0 1-7.38 6.199zm0 0" opacity="1" data-original="#495059"></path></g></svg>