<svg xmlns="http://www.w3.org/2000/svg" version="1.1" xmlns:xlink="http://www.w3.org/1999/xlink" width="512" height="512" x="0" y="0" viewBox="0 0 64 64" style="enable-background:new 0 0 512 512" xml:space="preserve" class=""><g><path fill="#f57c00" d="M50 16H26.428a1 1 0 0 1-.664-.253l-5.61-4.99A2.998 2.998 0 0 0 18.162 10H5a3 3 0 0 0-3 3v33a3 3 0 0 0 3 3h46a2 2 0 0 0 2-2V19a3 3 0 0 0-3-3z" opacity="1" data-original="#f57c00" class=""></path><path fill="#e0e0e0" d="M46 20H9a3 3 0 0 0-3 3v26h43V23a3 3 0 0 0-3-3z" opacity="1" data-original="#e0e0e0"></path><path fill="#ffa000" d="m57.41 28.65-4.191 18.785A2 2 0 0 1 51.267 49H5a2.974 2.974 0 0 1-2.81-1.97l4.39-19.68A3.006 3.006 0 0 1 9.51 25h44.97a3.018 3.018 0 0 1 2.93 3.65z" opacity="1" data-original="#ffa000" class=""></path><circle cx="51" cy="43" r="11" fill="#689f38" opacity="1" data-original="#689f38" class=""></circle><path fill="#e0e0e0" d="M55.53 38.152a1 1 0 0 0-1.378.318l-4.423 7.077L46.6 43.2a1 1 0 0 0-1.2 1.6l4 3a1.006 1.006 0 0 0 1.448-.27l5-8a1 1 0 0 0-.318-1.378z" opacity="1" data-original="#e0e0e0"></path></g></svg>