<svg xmlns="http://www.w3.org/2000/svg" version="1.1" xmlns:xlink="http://www.w3.org/1999/xlink" width="512" height="512" x="0" y="0" viewBox="0 0 512 512" style="enable-background:new 0 0 512 512" xml:space="preserve" class=""><g><path d="M44.266 311.044h343.643V60.109H84.557c-22.252 0-40.291 18.038-40.291 40.291v210.644z" style="" fill="#ffc73b" data-original="#ffc73b" class=""></path><path d="M387.91 60.109H127.8c-21.41 45.354-42.234 123.764-32.378 250.935H387.91V60.109z" style="" fill="#f9b43a" data-original="#f9b43a" class=""></path><path d="m295.699 76.197-11.053 24.124a46.709 46.709 0 0 1-42.465 27.253H40.291C18.038 127.575 0 145.614 0 167.866v264.718c0 22.253 18.039 40.292 40.292 40.292h431.415c22.253 0 40.292-18.039 40.292-40.292V79.416c0-22.253-18.039-40.292-40.292-40.292H353.466c-24.848-.001-47.417 14.484-57.767 37.073z" style="" fill="#ffda8f" data-original="#ffda8f" class=""></path><path d="M209.212 281.713c3.013-38.927 31.543-70.738 69.75-78.777 88.318-18.58 122.739-115.892 134.486-163.813h-59.982a63.542 63.542 0 0 0-57.767 37.074l-11.053 24.124a46.709 46.709 0 0 1-42.465 27.253H40.291C18.038 127.575 0 145.614 0 167.866v264.718c0 22.253 18.039 40.292 40.292 40.292h249.485c-76.814-34.652-85.703-124.779-80.565-191.163z" style="" fill="#fcd26d" data-original="#fcd26d" class=""></path><path d="m236.303 294.232-29.824-18.778c-10.582-6.663-14.414-20.567-8.132-31.379 6.596-11.353 21.227-14.884 32.242-7.948l15.16 9.546a19.167 19.167 0 0 0 20.423 0l15.16-9.546c10.781-6.788 25.018-3.551 31.806 7.228 6.787 10.779 3.55 25.019-7.229 31.806l-30.291 19.073a36.894 36.894 0 0 1-39.315-.002z" style="" fill="#57565c" data-original="#57565c"></path><path d="M289.778 285.323c-4.351-11.036-17.82-19.082-33.769-19.082-15.968 0-29.45 8.065-33.785 19.121l14.087 8.87a36.895 36.895 0 0 0 39.318 0l14.149-8.909z" style="" fill="#ff737d" data-original="#ff737d"></path><path d="M339.09 248.615a7.725 7.725 0 0 1-7.726-7.726v-12.826a7.725 7.725 0 0 1 7.726-7.726 7.725 7.725 0 0 1 7.726 7.726v12.826a7.725 7.725 0 0 1-7.726 7.726zM172.91 248.615a7.725 7.725 0 0 1-7.726-7.726v-12.826a7.725 7.725 0 0 1 7.726-7.726 7.725 7.725 0 0 1 7.726 7.726v12.826a7.726 7.726 0 0 1-7.726 7.726z" style="" fill="#57565c" data-original="#57565c"></path><path d="M145.541 277.325h-20.516c-6.712 0-12.204-5.492-12.204-12.204 0-6.712 5.492-12.204 12.204-12.204h20.516c6.712 0 12.204 5.492 12.204 12.204-.001 6.712-5.492 12.204-12.204 12.204zM386.976 277.325H366.46c-6.712 0-12.204-5.492-12.204-12.204 0-6.712 5.492-12.204 12.204-12.204h20.516c6.712 0 12.204 5.492 12.204 12.204 0 6.712-5.492 12.204-12.204 12.204z" style="" fill="#e9f6ff" data-original="#e9f6ff"></path></g></svg>