<svg xmlns="http://www.w3.org/2000/svg" version="1.1" xmlns:xlink="http://www.w3.org/1999/xlink" width="512" height="512" x="0" y="0" viewBox="0 0 512 512" style="enable-background:new 0 0 512 512" xml:space="preserve" class=""><g><path fill="#fdc072" d="M512 162.726v54.308l-409.299 37.204L0 263.573V162.726c0-25.603 20.761-46.364 46.364-46.364h419.273c25.602 0 46.363 20.761 46.363 46.364z" opacity="1" data-original="#fdc072" class=""></path><path fill="#f8ad3e" d="M102.701 116.362v137.876L0 263.573V162.726c0-25.603 20.761-46.364 46.364-46.364z" opacity="1" data-original="#f8ad3e" class=""></path><path fill="#00c9df" d="M473.209 46.425v232.849H287.033V46.425c0-17.072 13.837-30.909 30.909-30.909H442.3c17.072 0 30.909 13.837 30.909 30.909z" opacity="1" data-original="#00c9df"></path><path fill="#00bad5" d="M388.446 15.516c-9.52 5.265-15.959 15.413-15.959 27.056v236.702h-85.453V46.425c0-17.072 13.837-30.909 30.909-30.909z" opacity="1" data-original="#00bad5"></path><path fill="#f3f5fc" d="M442.186 62.055c0 8.569-6.944 15.516-15.516 15.516h-54.184L362.08 65.61l10.406-19.061h54.184c8.562 0 15.516 6.945 15.516 15.506z" opacity="1" data-original="#f3f5fc"></path><path fill="#e8ecf9" d="M372.486 46.549v31.022h-38.915c-8.562 0-15.506-6.944-15.506-15.516 0-8.68 7.069-15.506 15.506-15.506z" opacity="1" data-original="#e8ecf9"></path><path fill="#ace094" d="M349.088 92.964v232.849H162.912V92.964c0-17.061 13.837-30.909 30.909-30.909h124.358c17.072 0 30.909 13.848 30.909 30.909z" opacity="1" data-original="#ace094"></path><path fill="#8dd470" d="M270.888 62.055c-8.552 5.482-14.218 15.084-14.218 26.005v237.753h-93.758V92.964c0-17.061 13.837-30.909 30.909-30.909z" opacity="1" data-original="#8dd470"></path><path fill="#f3f5fc" d="M318.066 108.604c0 8.536-6.91 15.516-15.516 15.516h-45.88l-11.385-15.516 11.385-15.516h45.88c8.561 0 15.516 6.944 15.516 15.516z" opacity="1" data-original="#f3f5fc"></path><path fill="#e8ecf9" d="M256.67 93.088v31.033h-47.219c-8.562 0-15.516-6.945-15.516-15.516 0-8.536 6.91-15.516 15.516-15.516h47.219z" opacity="1" data-original="#e8ecf9"></path><path fill="#687daa" d="M232.725 139.514v232.849H46.549V217.209l13.363-92.326-2.926-8.511v-.011a30.714 30.714 0 0 1 20.472-7.758h124.358c17.072.001 30.909 13.839 30.909 30.911z" opacity="1" data-original="#687daa"></path><path fill="#4a66a0" d="M158.852 108.604c-11.56 4.461-19.761 15.692-19.761 28.828v234.93H46.549V139.514c0-17.072 13.837-30.909 30.909-30.909h81.394z" opacity="1" data-original="#4a66a0" class=""></path><path fill="#f3f5fc" d="M201.693 155.154c0 8.52-6.9 15.516-15.506 15.516h-47.095l-11.138-12.724 11.138-18.309h47.095c8.561 0 15.506 6.944 15.506 15.517z" opacity="1" data-original="#f3f5fc"></path><path fill="#e8ecf9" d="M139.091 139.637v31.033H93.088c-8.562 0-15.516-6.955-15.516-15.516 0-8.536 6.909-15.516 15.516-15.516h46.003z" opacity="1" data-original="#e8ecf9"></path><path fill="#fad989" d="M512 217.034V450.12c0 25.603-20.761 46.364-46.364 46.364H46.364C20.761 496.484 0 475.723 0 450.12V263.573l49.042-23.089 90.049-23.274h112.21a52.295 52.295 0 0 0 24.665-6.182 52.281 52.281 0 0 0 18.824-17.093 52.24 52.24 0 0 1 43.479-23.264h127.366C491.239 170.67 512 191.42 512 217.034z" opacity="1" data-original="#fad989" class=""></path><path fill="#fdc072" d="M143.624 496.484h-97.26C20.761 496.484 0 475.723 0 450.12V263.573c0-25.603 20.761-46.364 46.364-46.364h92.727s-26.747 6.584-26.747 44.118v195.284c.001 0 .487 27.393 31.28 39.873z" opacity="1" data-original="#fdc072" class=""></path><path fill="#fd7a6e" d="M465.911 232.727H340.877c-8.317 0-15.059-6.742-15.059-15.059v-.913c0-8.317 6.742-15.059 15.059-15.059h125.034c8.317 0 15.059 6.742 15.059 15.059v.913c0 8.317-6.742 15.059-15.059 15.059z" opacity="1" data-original="#fd7a6e"></path><path fill="#ffffff" d="M204.529 381.78c-.042 13.237-13.55 23.925-30.172 23.873s-30.064-10.825-30.022-24.062c.041-13.237 13.55-23.926 30.172-23.874 16.622.053 30.063 10.826 30.022 24.063zM307.471 382.102c-.041 13.237 13.4 24.01 30.022 24.062s30.131-10.636 30.172-23.873c.042-13.237-13.4-24.01-30.022-24.062s-30.13 10.636-30.172 23.873z" opacity="1" data-original="#ffffff"></path><path fill="#495560" d="M280.323 363.602c.047-14.997-10.813-16.44-24.214-16.482s-24.27 1.333-24.317 16.33c-.047 14.996 10.779 27.187 24.181 27.229 13.401.042 24.303-12.081 24.35-27.077zM206.38 363.431h-.025a7.728 7.728 0 0 1-7.703-7.752 6.553 6.553 0 0 0-1.918-4.672 6.559 6.559 0 0 0-4.66-1.947h-.021a6.605 6.605 0 0 0-6.598 6.578 7.728 7.728 0 0 1-7.726 7.703h-.025a7.728 7.728 0 0 1-7.703-7.752c.038-12.136 9.925-21.983 22.052-21.983h.07a21.912 21.912 0 0 1 15.573 6.508 21.91 21.91 0 0 1 6.41 15.615 7.727 7.727 0 0 1-7.726 7.702zM334.436 363.832h-.025a7.728 7.728 0 0 1-7.703-7.752 6.553 6.553 0 0 0-1.918-4.672 6.559 6.559 0 0 0-4.66-1.947h-.021a6.606 6.606 0 0 0-6.598 6.578 7.727 7.727 0 0 1-7.726 7.703h-.025a7.728 7.728 0 0 1-7.703-7.752c.038-12.136 9.926-21.984 22.052-21.984h.07a21.912 21.912 0 0 1 15.573 6.508 21.91 21.91 0 0 1 6.41 15.615 7.727 7.727 0 0 1-7.726 7.703z" opacity="1" data-original="#495560"></path></g></svg>