<svg xmlns="http://www.w3.org/2000/svg" version="1.1" xmlns:xlink="http://www.w3.org/1999/xlink" width="512" height="512" x="0" y="0" viewBox="0 0 512 512" style="enable-background:new 0 0 512 512" xml:space="preserve" class=""><g><linearGradient id="a" x1="256" x2="256" y1="512" y2="0" gradientUnits="userSpaceOnUse"><stop offset="0" style="stop-color:#5558FF" stop-color="#5558ff"></stop><stop offset="1" style="stop-color:#00C0FF" stop-color="#00c0ff"></stop></linearGradient><path d="M437 497H75c-33.137 0-60-26.863-60-60V75c0-33.137 26.863-60 60-60h362c33.137 0 60 26.863 60 60v362c0 33.137-26.863 60-60 60zM296 136v80h80m-80 0L416 96M136 216h80v-80m0 80L96 96m280 200h-80v80m0-80 120 120m-200-40v-80h-80M96 416l120-120" style="fill:none;stroke:url(#a);stroke-width:30;stroke-linecap:round;stroke-linejoin:round;stroke-miterlimit:10;" fill="none" stroke-width="30" stroke-linecap="round" stroke-linejoin="round" stroke-miterlimit="10"></path></g></svg>