<svg xmlns="http://www.w3.org/2000/svg" version="1.1" width="512" height="512" x="0" y="0" viewBox="0 0 32 32"
     style="enable-background:new 0 0 512 512" xml:space="preserve" class=""><g><path fill="#e8a113" d="M25 8H13.468L11.49 4.507A1 1 0 0 0 10.62 4H2a1 1 0 0 0-1 1v22a1 1 0 0 0 .817.983 1.067 1.067 0 0 0 .184.017 1 1 0 0 0 .933-.64L7.687 15H25a1 1 0 0 0 1-1V9a1 1 0 0 0-1-1z" opacity="1" ></path><path fill="#ffc431" d="M30.824 13.434A1 1 0 0 0 30 13H7a1.001 1.001 0 0 0-.934.64l-5 13A1 1 0 0 0 2 28h23a1.001 1.001 0 0 0 .934-.64l5-13a1.002 1.002 0 0 0-.11-.926z" opacity="1"
                                                                                                                                                                                                                                                                                                                                                                                                                       class=""></path></g></svg>