<svg xmlns="http://www.w3.org/2000/svg" version="1.1" xmlns:xlink="http://www.w3.org/1999/xlink" width="512" height="512" x="0" y="0" viewBox="0 0 1707 1707" style="enable-background:new 0 0 512 512" xml:space="preserve" fill-rule="evenodd" class=""><g><path fill="#4caf50" d="M223 0h1261c61 0 117 25 157 65 41 41 66 96 66 158v1261c0 61-25 117-66 157-40 41-96 66-157 66H223c-62 0-117-25-158-66-40-40-65-96-65-157V223c0-62 25-117 65-158 41-40 96-65 158-65z" opacity="1" data-original="#4caf50"></path><path fill="#8bc34a" d="M232 92h1243c38 0 73 16 98 41 26 26 41 61 41 99v1243c0 38-15 73-41 98-25 26-60 41-98 41H232c-38 0-73-15-99-41-25-25-41-60-41-98V232c0-38 16-73 41-99 26-25 61-41 99-41z" opacity="1" data-original="#8bc34a" class=""></path><path fill="#aad37b" d="M441 218c-9 0-17-8-17-17s8-16 17-16h283c9 0 17 7 17 16s-8 17-17 17zm412 0c-9 0-17-8-17-17s8-16 17-16h163c9 0 17 7 17 16s-8 17-17 17zm323 0c-9 0-17-8-17-17s8-16 17-16h185c9 0 16 7 16 16s-7 17-16 17zm313 226c0-9 7-17 16-17 10 0 17 8 17 17v225c0 9-7 16-17 16-9 0-16-7-16-16zm0 360c0-9 7-17 16-17 10 0 17 8 17 17v215c0 9-7 17-17 17-9 0-16-8-16-17zm0 388c0-10 7-17 16-17 10 0 17 7 17 17v147c0 9-7 17-17 17-9 0-16-8-16-17zm-134 297c9 0 16 7 16 16 0 10-7 17-16 17H930c-9 0-17-7-17-17 0-9 8-16 17-16zm-640 0c9 0 16 7 16 16 0 10-7 17-16 17H447c-9 0-17-7-17-17 0-9 8-16 17-16zm-497-221c0 10-8 17-17 17s-16-7-16-17V942c0-9 7-16 16-16s17 7 17 16zm0-467c0 9-8 17-17 17s-16-8-16-17V435c0-9 7-17 16-17s17 8 17 17z" opacity="1" data-original="#aad37b"></path><path fill="#ffffff" d="m853 761 273-273h-111c-65 0-65-98 0-98h226c32-1 54 22 53 54v225c0 65-98 65-98 0V558L903 851v417c0 65-99 65-99 0V851L511 558v111c0 65-98 65-98 0V444c-2-32 21-55 53-54h226c64 0 64 98 0 98H581z" opacity="1" data-original="#ffffff" class=""></path></g></svg>