<svg xmlns="http://www.w3.org/2000/svg" version="1.1" xmlns:xlink="http://www.w3.org/1999/xlink" width="512" height="512" x="0" y="0" viewBox="0 0 512 512" style="enable-background:new 0 0 512 512" xml:space="preserve" class=""><g><path fill="#37474f" d="M244.061 0H0v512h384.435V140.375z" opacity="1" data-original="#37474f" class=""></path><path fill="#fbc02d" d="m249.698 32.858 101.878 101.878H249.698z" opacity="1" data-original="#fbc02d" class=""></path><path fill="#fbc02d" d="M365.187 492.752H19.248V19.248h211.201v134.736h134.738z" opacity="1" data-original="#fbc02d" class=""></path><path fill="#ff8f00" d="M269.698 114.736V52.858l-20-20v101.878h101.878l-20-20zM39.248 19.248h-20v473.504h345.939v-20H39.248z" opacity="1" data-original="#ff8f00" class=""></path><path fill="#37474f" d="m261.686 208.214-71.928 71.943-71.927-71.943-54.104 54.062 71.94 71.985-71.94 71.956 54.082 54.165 71.949-71.995 71.95 71.995 54.082-54.165-71.94-71.956 71.94-71.985z" opacity="1" data-original="#37474f" class=""></path><path fill="#f44336" d="m261.693 236.494 25.811 25.792-71.932 71.978 71.946 71.962-25.817 25.856-71.943-71.988-71.943 71.988-25.816-25.856 71.946-71.962-71.933-71.978 25.812-25.792 71.934 71.95z" opacity="1" data-original="#f44336" class=""></path></g></svg>